<?xml version="1.0" encoding="UTF-8"?>
<svg width="71px" height="72px" viewBox="0 0 71 72" version="1.1" xmlns="http://www.w3.org/2000/svg" xmlns:xlink="http://www.w3.org/1999/xlink">
    <title>Group</title>
    <g id="Symbols" stroke="none" stroke-width="1" fill="none" fill-rule="evenodd">
        <g id="Projects-Value-Tiles-for-Employees" transform="translate(-739.000000, -75.000000)">
            <g id="Group" transform="translate(739.000000, 75.500000)">
                <circle id="Oval-Copy-7" fill="#69B5EB" cx="35.5" cy="35.5" r="35.5"></circle>
                <g id="Group-7" transform="translate(18.000000, 9.500000)">
                    <polygon id="Fill-1" fill="#4696D3" points="0 6.143 0 52.351 2.05 49.784 4.139 52.4 6.225 49.784 8.308 52.4 10.392 49.784 12.472 52.4 14.549 49.784 16.62 52.4 18.679 49.784 20.709 52.4 22.685 49.784 24.686 52.569 24.686 6.143"></polygon>
                    <polygon id="Fill-2" fill="#FEFEFE" points="5.1444 0.0004 5.1444 46.6644 7.2994 44.0964 9.4964 46.7144 11.5834 44.0964 13.6664 46.7144 15.7534 44.0964 17.8404 46.7144 19.9314 44.0964 22.0274 46.7144 24.1354 44.0964 26.2704 46.7144 28.4494 44.0964 30.8574 46.8804 30.8574 0.0004"></polygon>
                    <polygon id="Fill-3" fill="#9ACCED" points="10.257 7.5006 25.686 7.5006 25.686 5.4436 10.257 5.4436"></polygon>
                    <polygon id="Fill-4" fill="#9ACCED" points="10.257 11.6146 25.686 11.6146 25.686 9.5576 10.257 9.5576"></polygon>
                    <path d="M23.9635,36.6432 C24.8605,36.5892 25.4095,36.1072 25.4095,35.3572 C25.4095,34.7002 24.9685,34.3252 23.9635,34.1382 L23.9635,36.6432 Z M23.0785,30.2392 C22.2485,30.2522 21.7525,30.6542 21.7525,31.3512 C21.7525,31.9672 22.1275,32.2892 23.0785,32.4362 L23.0785,30.2392 Z M23.0785,39.0412 L23.0785,37.8352 C21.4845,37.7152 20.3595,36.8572 19.9715,35.4772 L21.3775,35.1562 C21.5915,36.0402 22.2345,36.6032 23.0785,36.6432 L23.0785,34.0572 C22.2215,33.8432 21.9265,33.7492 21.4845,33.5352 C20.7345,33.1732 20.3065,32.4632 20.3065,31.5792 C20.3065,30.5202 20.8815,29.6902 21.8735,29.3152 C22.2485,29.1672 22.5165,29.1012 23.0785,29.0332 L23.0785,28.0962 L23.9635,28.0962 L23.9635,29.0332 C25.2625,29.1942 26.2805,29.9842 26.5355,31.0432 L25.2095,31.3242 C24.9415,30.5872 24.6195,30.3062 23.9635,30.2392 L23.9635,32.5302 L24.3245,32.6242 C25.5175,32.9452 25.9325,33.1462 26.2945,33.5882 C26.6555,34.0172 26.8435,34.5662 26.8435,35.1832 C26.8435,36.0672 26.4545,36.8172 25.7445,37.2722 C25.2355,37.6072 24.8205,37.7422 23.9635,37.8352 L23.9635,39.0412 L23.0785,39.0412 Z" id="Fill-5" fill="#9ACCED"></path>
                </g>
            </g>
        </g>
    </g>
</svg>