<svg width="72" height="72" viewBox="0 0 72 72" xmlns="http://www.w3.org/2000/svg"><circle cx="36" cy="36" fill="#8ccc93" r="36"/><path d="m45.18 16.46v46.42l-2-2.78-1.98 2.62-2.03-2.62-2.05 2.62-2.08-2.62-2.07 2.62-2.08-2.62-2.09 2.62-2.08-2.62-2.09 2.62-2.09-2.62-2.04 2.56v-46.2z" fill="#4aad57"/><path d="m51.35 11.31v46.89l-2.41-2.79-2.18 2.62-2.13-2.62-2.11 2.62-2.09-2.62-2.09 2.62-2.09-2.62-2.09 2.62-2.08-2.62-2.09 2.62-2.2-2.62-2.15 2.57v-46.67z" fill="#fff"/><path d="m43.61 41h1.29v1.11a3.11 3.11 0 0 1 2.82 2.08l-2.11.65a1.26 1.26 0 0 0 -1.3-.84c-.37 0-.83.09-.83.55s.6.52.92.6a8.42 8.42 0 0 1 2.4.72 2.4 2.4 0 0 1 1.2 2.13c0 1.75-1.46 2.65-3 2.84v1.16h-1.39v-1.18a3.35 3.35 0 0 1 -3.07-2.56l2.36-.45a1.38 1.38 0 0 0 1.5 1c.35 0 1-.06 1-.53s-.62-.61-1-.69c-1.6-.32-3.4-.77-3.4-2.79a2.78 2.78 0 0 1 2.64-2.73z" fill="#bbdfc0"/><path d="m29.34 37.77.81-7.39-2.51-7 13.31 5.72z" fill="#f38db4"/><path d="m21.79 53.27s-8.59-5.27-5.79-12.61 16.17-5.66 16.17-5.66l.22-8.7s-18.09-2.06-21.39 10.9c-3.15 12.16 10.79 16.07 10.79 16.07z" fill="#f38db4"/><g fill="none" stroke="#bbdfc0" stroke-linecap="round" stroke-miterlimit="10" stroke-width="1.03"><path d="m30.78 17.49h15.43"/><path d="m30.78 21.6h15.43"/></g></svg>
