<?xml version="1.0" encoding="utf-8"?>
<!-- Generator: Adobe Illustrator 23.0.6, SVG Export Plug-In . SVG Version: 6.00 Build 0)  -->
<svg width="71px" height="72px" version="1.1" id="Layer_1" xmlns="http://www.w3.org/2000/svg" xmlns:xlink="http://www.w3.org/1999/xlink" x="0px" y="0px"
	 viewBox="0 0 71 72" style="enable-background:new 0 0 71 72;" xml:space="preserve">
<style type="text/css">
	.st0{fill-rule:evenodd;clip-rule:evenodd;fill:#F5DA66;}
	.st1{fill-rule:evenodd;clip-rule:evenodd;fill:#FEFEFE;}
	.st2{fill-rule:evenodd;clip-rule:evenodd;fill:#4299D4;}
	.st3{fill-rule:evenodd;clip-rule:evenodd;fill:#032841;}
	.st4{fill-rule:evenodd;clip-rule:evenodd;fill:#CCE4F6;}
	.st5{fill-rule:evenodd;clip-rule:evenodd;fill:#FDFEFE;}
	.st6{fill-rule:evenodd;clip-rule:evenodd;fill:#6CB3E2;}
	.st7{fill-rule:evenodd;clip-rule:evenodd;fill:#2D5D8B;}
	.st8{fill-rule:evenodd;clip-rule:evenodd;fill:#327EC1;}
	.st9{fill-rule:evenodd;clip-rule:evenodd;fill:#337FC1;}
</style>
<circle id="Oval-Copy-9" class="st0" cx="35.5" cy="36" r="35.5"/>
<path class="st1" d="M23.6,31.6c-5.7,0-11.8,10.5-11.8,18.7c0,8.2,6.1,10.9,11.8,10.9c5.7,0,11.8-2.7,11.8-10.9
	C35.4,42.1,29.3,31.6,23.6,31.6z"/>
<path class="st2" d="M20.6,34.9c-3.4,1.7-5.6,6.4-5.6,12c0,7,3.5,11.6,8.4,11.6c4.9,0,8.3-4.6,8.3-11.6c0-0.9-0.1-1.8-0.2-2.6
	C24.2,43.9,21.5,37.7,20.6,34.9z"/>
<path class="st3" d="M48,24.9C46.6,14.3,41.9,6.2,36.2,6.2c-5.7,0-10.1,9-11.8,18.7C23,33,22.3,42.5,36.2,42.5
	C50.4,42.5,49.1,33,48,24.9z"/>
<path class="st4" d="M41,10.9c-0.8-0.3-2.2-0.3-3.5,1.8c-1.7,2.7-3.2,7.3-9.1,7.9c0,0.3,0,0.6,0,0.9c0,7,4.2,11,8,11
	c3.8,0,8-4.1,8-11C44.4,17.1,43.1,13.2,41,10.9z"/>
<path class="st5" d="M59.5,44.4c-0.3-0.1-0.5,0-0.8,0.2c0,0,0-0.1,0-0.1v0c0-0.5,0-0.9-0.1-1.3c-0.1-0.8-0.2-1.6-0.3-2.4
	c-0.2-1.5-0.7-2.9-1.4-4.1c-0.2-0.4-0.5-0.8-0.7-1.2c0,0,0,0,0,0c-0.2-0.2-0.4-0.5-0.6-0.7c-0.3-0.3-0.6-0.6-0.9-0.8
	c-0.3-0.2-0.5-0.5-0.8-0.6c0,0,0,0,0,0c-0.1-0.1-0.2-0.2-0.4-0.2c-0.1-0.1-0.2-0.1-0.3-0.1c-0.3-0.2-0.7-0.3-1.1-0.5
	c-0.2-0.1-0.3-0.1-0.5-0.2c0,0-0.1,0-0.1,0c-0.7-0.2-1.4-0.2-2.2-0.2c-2.6,0-4.6,0.9-6.1,2.4c-1,1-1.8,2.2-2.3,3.6
	c-0.3,0.7-0.5,1.4-0.6,2.2c0,0.1,0,0.1,0,0.2c-0.1,0.4-0.1,0.7-0.2,1.1c0,0.1,0,0.1,0,0.2c0,0.2-0.1,0.5-0.1,0.7v0
	c0,0.1-0.1,0.6-0.1,1.2c0,0.3,0,0.6,0,1c0,0.3,0,0.5,0,0.8c-0.3-0.8-0.8-1-1.2-0.8c-0.8,0.2-0.9,1.7-0.5,3.3
	c0.4,1.5,1.6,3.8,2.4,3.8c1.5,5.9,5.3,8.6,8.7,8.6c3.7,0,7.4-2.9,8.8-8.9c0.7-0.7,1.5-2.3,1.8-3.5C60.4,46.1,60.3,44.6,59.5,44.4z"
	/>
<title>Group</title>
<path id="Fill-8" class="st6" d="M34,25.6c0.7,0.4,1.5,0.8,2.3,0.8l0,0c0,0,0.1,0,0,0l0,0l0.1,0l0.2,0l0.3,0c0.2,0,0.4-0.1,0.6-0.2
	c0.2-0.1,0.4-0.1,0.6-0.2c0.2-0.1,0.4-0.2,0.5-0.3c0.6-0.4,1.1-0.1,0.6,0.6c-0.2,0.4-0.6,0.7-1.1,1c-0.3,0.1-0.5,0.3-0.8,0.4
	c-0.2,0-0.4,0.1-0.5,0.1l-0.2,0l-0.1,0l0,0h-0.1l-0.1,0c-0.7,0-1.3-0.2-1.7-0.6c-0.2-0.1-0.4-0.3-0.6-0.5c-0.2-0.2-0.3-0.4-0.5-0.5
	C33,25.5,33.4,25.3,34,25.6"/>
<path id="Fill-10" class="st6" d="M36,21c-0.1,0-0.1,0.5-0.3,1.1c-0.1,0.2-0.1,0.3-0.2,0.5c-0.1,0.2-0.2,0.4-0.3,0.7
	c0,0.1,0,0.4,0,0.5c0,0.1,0.1,0.4,0.3,0.5c0.3,0.2,0.6,0.3,0.9,0.3c0.3,0,0.7-0.1,0.9-0.3c0.3-0.3,0.3-0.6,0.2-0.9
	c-0.1-0.3-0.2-0.5-0.3-0.7c-0.1-0.2-0.2-0.4-0.2-0.5c-0.2-0.7-0.1-1.2-0.2-1.2c-0.1,0-0.2,0.4-0.1,1.2c0,0.2,0.1,0.4,0.2,0.6
	c0.1,0.2,0.2,0.4,0.2,0.6c0,0.2,0,0.4-0.1,0.5C36.9,24,36.7,24,36.4,24c-0.2,0-0.5-0.1-0.6-0.2c-0.1-0.1-0.1-0.1-0.1-0.2
	c0-0.1,0-0.2,0-0.3c0-0.2,0.1-0.4,0.2-0.6c0.1-0.2,0.2-0.4,0.2-0.6C36.2,21.4,36.1,21,36,21"/>
<path id="Fill-12" class="st6" d="M37.3,16.7c0.1,0.2,1.2-0.6,2.4-0.3c1.3,0.3,2.1,1.2,2.3,1c0.1-0.1,0-0.4-0.4-0.8
	c-0.3-0.4-0.9-0.9-1.8-1c-0.8-0.2-1.6,0.1-2,0.4C37.4,16.4,37.2,16.7,37.3,16.7"/>
<path id="Fill-14" class="st6" d="M38.1,19.6c0,0.5,0.4,0.9,0.9,0.9c0.5,0,0.9-0.4,0.9-0.9c0-0.5-0.4-0.9-0.9-0.9
	C38.5,18.7,38.1,19.1,38.1,19.6"/>
<path id="Fill-16" class="st6" d="M33.1,19.6c0,0.5,0.4,0.9,0.9,0.9s0.9-0.4,0.9-0.9c0-0.5-0.4-0.9-0.9-0.9S33.1,19.1,33.1,19.6"/>
<path id="Fill-24" class="st7" d="M25.8,51.4c-0.7,0.4-1.5,0.8-2.3,0.8l0,0c0,0-0.1,0,0,0l0,0l-0.1,0l-0.2,0l-0.3,0
	c-0.2,0-0.4-0.1-0.6-0.2c-0.2-0.1-0.4-0.1-0.6-0.2c-0.2-0.1-0.4-0.2-0.5-0.3c-0.6-0.4-1.1-0.1-0.6,0.6c0.2,0.4,0.6,0.7,1.1,1
	c0.3,0.1,0.5,0.3,0.8,0.4c0.2,0,0.4,0.1,0.5,0.1l0.2,0l0.1,0l0,0h0.1l0.1,0c0.7,0,1.3-0.2,1.7-0.5c0.2-0.1,0.4-0.3,0.6-0.5
	c0.2-0.2,0.3-0.4,0.5-0.5C26.8,51.3,26.4,51,25.8,51.4"/>
<path id="Fill-26" class="st7" d="M23.8,46.7c0.1,0,0.1,0.5,0.3,1.1c0.1,0.2,0.1,0.3,0.2,0.5c0.1,0.2,0.2,0.4,0.3,0.7
	c0,0.1,0,0.4,0,0.5c0,0.1-0.1,0.4-0.3,0.5c-0.3,0.2-0.6,0.3-0.9,0.3c-0.3,0-0.7-0.1-0.9-0.3c-0.3-0.3-0.3-0.6-0.2-0.9
	c0.1-0.3,0.2-0.5,0.3-0.7c0.1-0.2,0.2-0.4,0.2-0.5c0.2-0.7,0.1-1.2,0.2-1.2c0.1,0,0.2,0.4,0.1,1.2c0,0.2-0.1,0.4-0.2,0.6
	s-0.2,0.4-0.2,0.6c0,0.2,0,0.4,0.1,0.5c0.1,0.1,0.4,0.2,0.6,0.2c0.2,0,0.5-0.1,0.6-0.2c0.1-0.1,0.1-0.1,0.1-0.2c0-0.1,0-0.2,0-0.3
	c0-0.2-0.1-0.4-0.2-0.6c-0.1-0.2-0.2-0.4-0.2-0.6C23.6,47.1,23.7,46.7,23.8,46.7"/>
<path id="Fill-28" class="st7" d="M22.5,42.5c-0.1,0.2-1.2-0.6-2.4-0.3c-1.3,0.3-2.1,1.2-2.3,1c-0.1-0.1,0-0.4,0.4-0.8
	c0.3-0.4,0.9-0.9,1.8-1c0.8-0.2,1.6,0.1,2,0.4C22.4,42.1,22.6,42.4,22.5,42.5"/>
<path id="Fill-32" class="st7" d="M21.7,45.3c0,0.5-0.4,0.9-0.9,0.9c-0.5,0-0.9-0.4-0.9-0.9c0-0.5,0.4-0.9,0.9-0.9
	C21.3,44.4,21.7,44.8,21.7,45.3"/>
<path id="Fill-34" class="st7" d="M26.7,45.3c0,0.5-0.4,0.9-0.9,0.9c-0.5,0-0.9-0.4-0.9-0.9c0-0.5,0.4-0.9,0.9-0.9
	C26.3,44.4,26.7,44.8,26.7,45.3"/>
<path id="Fill-40" class="st6" d="M51.8,52.6c-0.7,0.4-1.5,0.8-2.3,0.8l0,0c0,0-0.1,0,0,0l0,0l-0.1,0l-0.2,0l-0.3,0
	c-0.2,0-0.4-0.1-0.6-0.2c-0.2-0.1-0.4-0.1-0.6-0.2c-0.2-0.1-0.4-0.2-0.5-0.3c-0.6-0.4-1.1-0.1-0.6,0.6c0.2,0.4,0.6,0.7,1.1,1
	c0.3,0.1,0.5,0.3,0.8,0.4c0.2,0,0.4,0.1,0.5,0.1l0.2,0l0.1,0l0,0h0.1l0.1,0c0.7,0,1.3-0.2,1.7-0.5c0.2-0.1,0.4-0.3,0.6-0.5
	c0.2-0.2,0.3-0.4,0.5-0.5C52.8,52.5,52.4,52.2,51.8,52.6"/>
<path id="Fill-46" class="st6" d="M49.8,48c0.1,0,0.1,0.5,0.3,1.1c0.1,0.2,0.1,0.3,0.2,0.5c0.1,0.2,0.2,0.4,0.3,0.7
	c0,0.1,0,0.4,0,0.5c0,0.1-0.1,0.4-0.3,0.5c-0.3,0.2-0.6,0.3-0.9,0.3c-0.3,0-0.7-0.1-0.9-0.3c-0.3-0.3-0.3-0.6-0.2-0.9
	c0.1-0.3,0.2-0.5,0.3-0.7c0.1-0.2,0.2-0.4,0.2-0.5c0.2-0.7,0.1-1.2,0.2-1.2c0.1,0,0.2,0.4,0.1,1.2c0,0.2-0.1,0.4-0.2,0.6
	c-0.1,0.2-0.2,0.4-0.2,0.6c0,0.2,0,0.4,0.1,0.5c0.1,0.1,0.4,0.2,0.6,0.2c0.2,0,0.5-0.1,0.6-0.2c0.1-0.1,0.1-0.1,0.1-0.2
	c0-0.1,0-0.2,0-0.3c0-0.2-0.1-0.4-0.2-0.6c-0.1-0.2-0.2-0.4-0.2-0.6C49.6,48.4,49.7,47.9,49.8,48"/>
<path id="Fill-52" class="st8" d="M56.1,33c0,0,0-0.1,0-0.2C56.2,32.9,56.2,33,56.1,33"/>
<path id="Fill-60" class="st6" d="M48.5,43.7c-0.1,0.2-1.2-0.6-2.4-0.3c-1.3,0.3-2.1,1.2-2.3,1c-0.1-0.1,0-0.4,0.4-0.8
	c0.3-0.4,0.9-0.9,1.8-1c0.8-0.2,1.6,0.1,2,0.4C48.4,43.4,48.5,43.7,48.5,43.7"/>
<path id="Fill-62" class="st6" d="M50.4,43.7c-0.1-0.1,0.1-0.3,0.6-0.6c0.4-0.3,1.2-0.6,2-0.4c0.8,0.1,1.4,0.6,1.8,1
	c0.3,0.4,0.5,0.7,0.4,0.8c-0.2,0.1-1-0.8-2.3-1C51.6,43.2,50.5,44,50.4,43.7"/>
<path id="Fill-68" class="st6" d="M47.7,46.5c0,0.5-0.4,0.9-0.9,0.9c-0.5,0-0.9-0.4-0.9-0.9s0.4-0.9,0.9-0.9
	C47.3,45.7,47.7,46.1,47.7,46.5"/>
<path id="Fill-70" class="st6" d="M52.7,46.5c0,0.5-0.4,0.9-0.9,0.9c-0.5,0-0.9-0.4-0.9-0.9s0.4-0.9,0.9-0.9
	C52.3,45.7,52.7,46.1,52.7,46.5"/>
<path class="st9" d="M58.8,45v-0.1c0-0.1,0-0.2,0-0.4c0-0.4,0-0.9-0.1-1.3c-0.1-0.8-0.2-1.6-0.3-2.4c-0.2-1.5-0.7-2.9-1.4-4.1
	c-0.2-0.4-0.5-0.8-0.7-1.2l0,0l0,0l0,0c-0.1-0.1-0.2-0.3-0.3-0.4c-0.1-0.1-0.2-0.2-0.2-0.3c0,0,0,0,0,0c0,0,0,0,0,0l-0.2-0.2l0,0
	c-0.2-0.2-0.4-0.4-0.7-0.7c-0.3-0.2-0.5-0.5-0.8-0.7l0,0h0c-0.1,0-0.1-0.1-0.2-0.1c0,0-0.1,0-0.1-0.1c0,0-0.1-0.1-0.2-0.1
	c0,0-0.1,0-0.1-0.1c-0.3-0.2-0.7-0.3-1.1-0.5c-0.2-0.1-0.3-0.1-0.5-0.2c0,0-0.1,0-0.2,0c-0.7-0.2-1.4-0.3-2.2-0.3
	c-2.4,0-4.5,0.8-6.1,2.4c-1,1-1.8,2.2-2.3,3.7c-0.3,0.7-0.5,1.4-0.6,2.2c0,0,0,0,0,0.1c0,0,0,0,0,0c-0.2,0.7-0.6,2.8-0.5,5.1
	c0,1.6,0.3,2.8,0.4,3.3c0.2-6.5,1.8-6.9,3.2-7.4c1.5-0.5,3.2-0.7,5-0.9c0.9-0.1,1.8-0.2,2.6-0.4c-1.2,0.8-3,1.6-3,1.6l0.6,0
	c4-0.2,5.8-1.5,6.6-2.6c0.3-0.3,0.4-0.7,0.6-1c0.3,3.4,0.8,7.8,2.8,10.4l0.2,0.2l0-0.3c0.1-1,0.1-1.9,0.1-2.9
	C58.9,45.3,58.9,45.1,58.8,45z"/>
<path class="st7" d="M25,41.8C25,41.8,25,41.8,25,41.8c-0.5,0.3-0.7,0.6-0.6,0.7c0.1,0.1,0.5-0.1,1.1-0.3L25,41.8z"/>
</svg>
